<?xml version="1.0" standalone="no"?>
<!DOCTYPE svg PUBLIC "-//W3C//DTD SVG 20010904//EN"
 "http://www.w3.org/TR/2001/REC-SVG-20010904/DTD/svg10.dtd">
<svg version="1.0" xmlns="http://www.w3.org/2000/svg"
 width="577.000000pt" height="577.000000pt" viewBox="0 0 577.000000 577.000000"
 preserveAspectRatio="xMidYMid meet">
<metadata>
Created by potrace 1.14, written by Peter Selinger 2001-2017
</metadata>
<g transform="translate(0.000000,577.000000) scale(0.100000,-0.100000)"
fill="#000000" stroke="none">
<path d="M1633 5052 l-1243 -717 0 -1445 0 -1445 1245 -718 1245 -719 1245
719 1245 718 0 1445 0 1445 -1244 718 c-684 394 -1245 717 -1247 717 -2 0
-563 -323 -1246 -718z m2367 -219 l1120 -646 0 -1297 0 -1297 -1120 -646
-1120 -647 -1120 647 -1120 646 0 1297 0 1297 1118 646 c614 355 1118 646
1119 646 2 1 507 -290 1123 -646z"/>
<path d="M2229 3929 c-332 -396 -604 -724 -604 -729 0 -5 274 -240 609 -521
583 -489 610 -510 626 -492 77 82 270 326 264 332 -5 4 -204 171 -442 370
-383 321 -431 365 -420 379 69 88 622 742 627 742 4 0 203 -164 442 -365 239
-200 437 -365 440 -365 3 0 50 53 104 118 55 64 119 140 142 168 l44 52 -463
388 c-255 214 -531 446 -614 516 l-151 127 -604 -720z"/>
<path d="M2771 3439 c-79 -94 -139 -174 -135 -178 5 -5 204 -171 442 -370 383
-321 431 -365 420 -379 -69 -88 -622 -742 -627 -742 -4 0 -203 164 -442 365
-239 200 -437 365 -440 365 -3 0 -50 -53 -104 -117 -55 -65 -119 -141 -142
-169 l-44 -52 463 -388 c255 -214 531 -446 614 -516 l151 -127 604 720 c332
396 604 724 604 729 0 8 -1210 1030 -1219 1030 -1 0 -67 -77 -145 -171z"/>
</g>
</svg>
