<svg height="480pt" viewBox="0 0 480 480" width="480pt" xmlns="http://www.w3.org/2000/svg"><path d="m416 120h16v112h-16zm0 0"/><path d="m1.097656 391.871094c.355469 1.539062.824219 3.050781 1.40625 4.519531.230469.558594.585938 1.046875.847656 1.601563 2.320313 5.140624 6.078126 9.503906 10.816407 12.566406 1.167969.734375 2.378906 1.394531 3.632812 1.976562.613281.304688 1.175781.703125 1.816407.976563 1.425781.550781 2.890624 1 4.382812 1.34375.558594.144531 1.070312.382812 1.640625.496093 2.09375.425782 4.222656.644532 6.359375.648438h216v-16h-216c-1.074219 0-2.148438-.109375-3.199219-.320312-.386719-.082032-.746093-.242188-1.121093-.34375-.632813-.15625-1.253907-.347657-1.863282-.578126-.546875-.261718-1.082031-.554687-1.601562-.871093-.359375-.207031-.742188-.367188-1.085938-.59375-.859375-.585938-1.664062-1.253907-2.402344-1.992188-.734374-.734375-1.398437-1.535156-1.984374-2.398437-.300782-.457032-.527344-.96875-.796876-1.457032-.273437-.488281-.488281-.800781-.671874-1.253906-.265626-.671875-.480469-1.363281-.640626-2.066406-.089843-.3125-.226562-.605469-.289062-.933594-.957031-4.703125.246094-9.589844 3.28125-13.308594 3.03125-3.71875 7.574219-5.878906 12.375-5.882812h24c4.417969 0 8-3.582031 8-8v-280h280v-16h-280v-40c0-4.421875-3.582031-8-8-8h-24c-17.671875 0-32 14.324219-32 32v336c0 2.148438.21875 4.292969.648438 6.398438.105468.496093.320312.96875.449218 1.472656zm14.902344-343.871094c0-8.839844 7.164062-16 16-16h16v320h-16c-5.621094-.011719-11.140625 1.472656-16 4.292969zm0 0"/><path d="m217.710938 181.335938-17.0625-21.335938h71.351562v-16h-88c-2.371094.011719-4.609375 1.074219-6.121094 2.902344 0 .046875-.09375.054687-.125.097656l-64 80c-.417968.539062-.769531 1.132812-1.042968 1.757812 0 .054688-.0625.097657-.085938.152344-.347656.878906-.539062 1.8125-.5625 2.761719 0 .117187-.0625.214844-.0625.328125v96c0 4.417969 3.582031 8 8 8h208v-16h-72v-80h112v48h16v-56c0-.113281-.0625-.210938-.0625-.328125-.023438-.945313-.210938-1.875-.5625-2.753906 0-.070313-.078125-.121094-.101562-.183594-.265626-.617187-.609376-1.199219-1.027344-1.726563l-24-30.035156-12.492188 9.984375 13.597656 17.042969h-107.503906zm-33.710938-16.539063 31.566406 39.464844 15.785156 19.738281h-94.703124zm-56 75.203125h112v80h-24v-56c0-4.421875-3.582031-8-8-8h-48c-4.417969 0-8 3.578125-8 8v56h-24zm40 80v-48h32v48zm0 0"/><path d="m296 256c-4.417969 0-8 3.578125-8 8v32c0 4.417969 3.582031 8 8 8h32c4.417969 0 8-3.582031 8-8v-32c0-4.421875-3.582031-8-8-8zm24 32h-16v-16h16zm0 0"/><path d="m475.0625 216.605469c-2.988281-1.238281-6.429688-.550781-8.71875 1.738281l-248 248c-2.285156 2.285156-2.972656 5.726562-1.734375 8.714844 1.238281 2.988281 4.15625 4.9375 7.390625 4.941406h248c4.417969 0 8-3.582031 8-8v-248c0-3.238281-1.949219-6.15625-4.9375-7.394531zm-11.0625 247.394531h-220.6875l220.6875-220.691406zm0 0"/><path d="m336.609375 427.0625c1.238281 2.988281 4.15625 4.9375 7.390625 4.9375h80c4.417969 0 8-3.582031 8-8v-80c0-3.238281-1.949219-6.152344-4.9375-7.390625s-6.429688-.554687-8.71875 1.734375l-80 80c-2.289062 2.285156-2.972656 5.726562-1.734375 8.71875zm79.390625-63.753906v52.691406h-52.6875zm0 0"/><path d="m445.65625 2.34375c-3.125-3.125-8.1875-3.125-11.3125 0l-144 144c-.875.878906-1.535156 1.949219-1.929688 3.125l-8 24c-.957031 2.875-.210937 6.042969 1.929688 8.183594l2.34375 2.347656-18.34375 18.34375 11.3125 11.308594 18.34375-18.34375 2.34375 2.34375c1.5 1.503906 3.535156 2.34375 5.65625 2.347656.859375-.003906 1.710938-.140625 2.527344-.410156l24-8c1.179687-.394532 2.25-1.054688 3.128906-1.9375l144-144c3.121094-3.121094 3.121094-8.1875 0-11.308594zm-134.34375 145.65625 32.6875-32.691406 20.6875 20.691406-32.6875 32.6875zm-5.144531 34.847656-9.007813-9.007812 4.335938-13.035156 17.703125 17.699218zm69.832031-58.160156-20.6875-20.6875 84.6875-84.691406 20.6875 20.691406zm0 0"/><path d="m80 336v24c0 4.417969 3.582031 8 8 8h24v-16h-16v-16zm0 0"/><path d="m112 96h-24c-4.417969 0-8 3.578125-8 8v24h16v-16h16zm0 0"/></svg>