<?xml version="1.0" encoding="iso-8859-1"?>
<!-- Generator: Adobe Illustrator 19.0.0, SVG Export Plug-In . SVG Version: 6.00 Build 0)  -->
<svg version="1.1" id="Capa_1" xmlns="http://www.w3.org/2000/svg" xmlns:xlink="http://www.w3.org/1999/xlink" x="0px" y="0px"
	 viewBox="0 0 496 496" style="enable-background:new 0 0 496 496;" xml:space="preserve">
<g>
	<g>
		<g>
			<path d="M496,234.944l-2.712-25.744l-22.688-8.512l17.272-17.016l-8-24.616l-23.976-3.616l13.352-20.224l-12.944-22.424
				l-24.2,1.456l8.856-22.568l-17.32-19.24l-23.368,6.456l3.976-23.904l-20.944-15.224l-21.52,11.176l-1.088-24.224l-23.648-10.528
				L318.32,31.568l-6.096-23.464l-25.32-5.384l-15.12,18.952L260.944,0h-25.888l-10.84,21.68l-15.12-18.952l-25.32,5.384
				l-6.096,23.456l-18.728-15.4l-23.648,10.528l-1.088,24.224l-21.52-11.176L91.76,54.976l3.976,23.904l-23.368-6.456L55.04,91.672
				l8.856,22.568l-24.2-1.456l-12.944,22.424l13.352,20.224l-23.976,3.616l-8,24.616L25.4,200.68L2.712,209.2L0,234.944L20.44,248
				L0,261.056L2.712,286.8l22.688,8.512L8.128,312.328l8,24.616l23.976,3.616l-13.352,20.224l12.944,22.424l24.2-1.456
				l-8.856,22.576l17.32,19.24l23.368-6.456l-3.976,23.904l20.944,15.224l21.52-11.176l1.088,24.224l23.648,10.528l18.728-15.4
				l6.096,23.464l25.32,5.384l15.12-18.952L235.056,496h25.888l10.84-21.68l15.12,18.952l25.32-5.384l6.096-23.464l18.728,15.4
				l23.648-10.528l1.088-24.224l21.52,11.176l20.944-15.224l-3.976-23.904l23.368,6.456l17.32-19.24l-8.856-22.568l24.2,1.456
				l12.944-22.424l-13.352-20.224l23.976-3.616l8-24.616L470.6,295.328l22.688-8.512l2.712-25.76L475.56,248L496,234.944z
				 M478.408,220.704l0.64,6.088l-15.352,9.808c-0.392-7.536-1.184-14.968-2.336-22.288L478.408,220.704z M467.696,173.4
				l1.888,5.824l-12.992,12.792c-1.952-7.272-4.288-14.384-6.96-21.336L467.696,173.4z M447.392,129.352l3.056,5.296l-10.096,15.28
				c-3.432-6.704-7.192-13.2-11.28-19.48L447.392,129.352z M418.368,90.488l4.088,4.544l-6.712,17.088
				c-4.736-5.832-9.744-11.44-15.048-16.752L418.368,90.488z M381.888,58.512l4.944,3.592l-3.008,18.112
				c-5.824-4.728-11.912-9.136-18.216-13.248L381.888,58.512z M339.568,34.816l5.584,2.488l0.816,18.296
				c-6.648-3.4-13.496-6.472-20.52-9.176L339.568,34.816z M293.248,20.432l5.976,1.272l4.592,17.648
				c-7.176-1.92-14.48-3.496-21.928-4.672L293.248,20.432z M244.944,16h6.112l8.144,16.288C255.488,32.096,251.76,32,248,32
				s-7.488,0.096-11.2,0.288L244.944,16z M196.776,21.704l5.976-1.272l11.36,14.248c-7.44,1.176-14.752,2.752-21.928,4.672
				L196.776,21.704z M150.84,37.304l5.592-2.488l14.112,11.608c-7.024,2.712-13.864,5.776-20.52,9.176L150.84,37.304z
				 M114.104,58.512l16.28,8.456c-6.304,4.112-12.392,8.52-18.216,13.248l-3.008-18.112L114.104,58.512z M77.632,90.496l17.672,4.88
				c-5.312,5.312-10.312,10.92-15.048,16.752L73.544,95.04L77.632,90.496z M48.608,129.352l18.32,1.104
				c-4.088,6.272-7.848,12.776-11.28,19.48l-10.096-15.28L48.608,129.352z M28.304,173.4l18.064-2.72
				c-2.672,6.952-5.008,14.064-6.96,21.336l-12.992-12.792L28.304,173.4z M16.952,226.792l0.64-6.088l17.056-6.4
				c-1.152,7.32-1.944,14.752-2.336,22.288L16.952,226.792z M17.592,275.296l-0.64-6.088l15.352-9.808
				c0.392,7.536,1.184,14.968,2.336,22.288L17.592,275.296z M28.304,322.6l-1.888-5.824l12.992-12.792
				c1.952,7.272,4.288,14.384,6.96,21.336L28.304,322.6z M48.608,366.648l-3.056-5.296l10.096-15.28
				c3.432,6.704,7.192,13.2,11.28,19.48L48.608,366.648z M77.632,405.512l-4.088-4.544l6.712-17.088
				c4.736,5.832,9.744,11.44,15.048,16.752L77.632,405.512z M114.112,437.488l-4.944-3.592l3.008-18.112
				c5.824,4.728,11.912,9.136,18.216,13.248L114.112,437.488z M156.432,461.184l-5.584-2.488l-0.816-18.296
				c6.648,3.4,13.496,6.472,20.52,9.176L156.432,461.184z M202.752,475.568l-5.976-1.272l-4.592-17.648
				c7.176,1.92,14.48,3.496,21.928,4.672L202.752,475.568z M251.056,480h-6.112l-8.144-16.288c3.712,0.192,7.44,0.288,11.2,0.288
				s7.488-0.096,11.2-0.288L251.056,480z M299.224,474.296l-5.976,1.272l-11.36-14.248c7.44-1.176,14.752-2.752,21.928-4.672
				L299.224,474.296z M345.16,458.696l-5.592,2.488l-14.112-11.608c7.024-2.712,13.864-5.776,20.52-9.176L345.16,458.696z
				 M381.896,437.488l-16.28-8.456c6.304-4.112,12.392-8.52,18.216-13.248l3.008,18.112L381.896,437.488z M418.368,405.504
				l-17.672-4.88c5.312-5.312,10.312-10.92,15.048-16.752l6.712,17.088L418.368,405.504z M248,448c-110.28,0-200-89.72-200-200
				S137.72,48,248,48s200,89.72,200,200S358.28,448,248,448z M447.392,366.648l-18.32-1.104c4.088-6.272,7.848-12.776,11.28-19.48
				l10.096,15.28L447.392,366.648z M467.696,322.6l-18.064,2.72c2.672-6.952,5.008-14.064,6.96-21.336l12.992,12.792L467.696,322.6z
				 M479.048,269.208l-0.64,6.088l-17.056,6.4c1.152-7.32,1.944-14.752,2.336-22.288L479.048,269.208z"/>
			<path d="M248,112c-74.992,0-136,61.008-136,136s61.008,136,136,136c38.136,0,74.76-16.168,100.48-44.352l-11.824-10.784
				C313.968,353.736,281.648,368,248,368c-66.168,0-120-53.832-120-120s53.832-120,120-120s120,53.832,120,120
				c0,24.24-7.192,47.592-20.792,67.528l13.216,9.016C375.848,301.936,384,275.472,384,248C384,173.008,322.992,112,248,112z"/>
			<path d="M288,248c0-22.056-17.944-40-40-40c-22.056,0-40,17.944-40,40c0,22.056,17.944,40,40,40C270.056,288,288,270.056,288,248
				z M224,248c0-13.232,10.768-24,24-24s24,10.768,24,24s-10.768,24-24,24S224,261.232,224,248z"/>
			<path d="M272,168c0-13.232-10.768-24-24-24s-24,10.768-24,24s10.768,24,24,24S272,181.232,272,168z M240,168c0-4.416,3.592-8,8-8
				s8,3.584,8,8s-3.592,8-8,8C243.592,176,240,172.416,240,168z"/>
			<path d="M194.744,230.696c1.984-6.096,1.472-12.6-1.44-18.312c-2.912-5.712-7.872-9.944-13.968-11.928
				c-6.104-1.984-12.6-1.472-18.32,1.44c-5.712,2.912-9.952,7.872-11.928,13.976c-1.984,6.096-1.472,12.6,1.44,18.312
				c2.912,5.712,7.872,9.944,13.968,11.92c2.448,0.792,4.952,1.184,7.448,1.184c3.736,0,7.44-0.88,10.864-2.624
				C188.52,241.752,192.76,236.8,194.744,230.696z M179.52,225.752c-0.664,2.032-2.072,3.688-3.976,4.656
				c-1.888,0.96-4.064,1.152-6.104,0.48c-2.032-0.656-3.68-2.072-4.656-3.968c-0.976-1.904-1.144-4.072-0.48-6.112
				c0.664-2.032,2.072-3.688,3.976-4.656c1.144-0.576,2.376-0.872,3.624-0.872c0.832,0,1.664,0.136,2.48,0.4h0.008
				c2.032,0.656,3.68,2.072,4.656,3.976C180.016,221.552,180.184,223.72,179.52,225.752z"/>
			<path d="M186.872,332.136c4.144,3.016,9.024,4.592,14.056,4.592c1.264,0,2.536-0.104,3.808-0.304
				c6.336-1,11.896-4.408,15.664-9.592s5.296-11.528,4.288-17.856c-1-6.336-4.408-11.896-9.6-15.672
				c-10.712-7.776-25.76-5.376-33.52,5.32C173.784,309.328,176.168,324.36,186.872,332.136z M194.504,308.024
				c1.568-2.16,4.008-3.296,6.488-3.296c1.632,0,3.272,0.496,4.688,1.512c3.568,2.592,4.36,7.608,1.768,11.176
				c-2.6,3.568-7.616,4.36-11.168,1.768C192.704,316.6,191.912,311.584,194.504,308.024z"/>
			<path d="M291.272,336.424c1.272,0.2,2.536,0.304,3.808,0.304c5.024,0,9.912-1.576,14.056-4.592
				c10.704-7.776,13.088-22.808,5.312-33.512s-22.816-13.104-33.528-5.312c-5.184,3.768-8.592,9.328-9.6,15.664
				c-1,6.328,0.52,12.672,4.288,17.856C279.376,332.016,284.936,335.424,291.272,336.424z M290.32,306.248
				c1.416-1.032,3.064-1.52,4.688-1.52c2.48,0,4.928,1.144,6.488,3.296c2.592,3.56,1.8,8.576-1.776,11.168
				c-3.568,2.568-8.576,1.8-11.168-1.776C285.96,313.84,286.752,308.832,290.32,306.248z"/>
			<path d="M331.504,246.104c6.096-1.984,11.056-6.216,13.968-11.92c2.912-5.712,3.424-12.216,1.44-18.312
				c-1.984-6.104-6.216-11.064-11.928-13.976c-5.704-2.904-12.208-3.424-18.312-1.44c-6.096,1.976-11.064,6.216-13.976,11.928
				c-2.912,5.712-3.424,12.216-1.44,18.32c1.984,6.096,6.216,11.048,11.928,13.96c3.424,1.744,7.136,2.624,10.864,2.624
				C326.552,247.288,329.056,246.888,331.504,246.104z M316.48,225.76c-0.664-2.04-0.496-4.2,0.48-6.112
				c0.968-1.904,2.624-3.32,4.664-3.976c0.816-0.264,1.648-0.4,2.48-0.4c1.248,0,2.48,0.296,3.624,0.872
				c1.904,0.968,3.32,2.624,3.976,4.656c0.664,2.04,0.496,4.2-0.48,6.112c-0.968,1.896-2.624,3.312-4.656,3.968h-0.008
				c-2.032,0.664-4.2,0.504-6.104-0.472C318.552,229.44,317.136,227.784,316.48,225.76z"/>
		</g>
	</g>
</g>
<g>
</g>
<g>
</g>
<g>
</g>
<g>
</g>
<g>
</g>
<g>
</g>
<g>
</g>
<g>
</g>
<g>
</g>
<g>
</g>
<g>
</g>
<g>
</g>
<g>
</g>
<g>
</g>
<g>
</g>
</svg>
