<?xml version="1.0" encoding="iso-8859-1"?>
<!-- Generator: Adobe Illustrator 19.0.0, SVG Export Plug-In . SVG Version: 6.00 Build 0)  -->
<svg version="1.1" id="Capa_1" xmlns="http://www.w3.org/2000/svg" xmlns:xlink="http://www.w3.org/1999/xlink" x="0px" y="0px"
	 viewBox="0 0 512 512" style="enable-background:new 0 0 512 512;" xml:space="preserve">
<g>
	<g>
		<path d="M502,0H10C4.478,0,0,4.477,0,10v492c0,5.523,4.478,10,10,10h492c5.522,0,10-4.477,10-10V10C512,4.477,507.522,0,502,0z
			 M492,492H20V20h472V492z"/>
	</g>
</g>
<g>
	<g>
		<path d="M90,412H50c-5.522,0-10,4.477-10,10v40c0,5.523,4.478,10,10,10h40c5.522,0,10-4.477,10-10v-40
			C100,416.477,95.522,412,90,412z M80,452H60v-20h20V452z"/>
	</g>
</g>
<g>
	<g>
		<path d="M462,412h-40c-5.522,0-10,4.477-10,10v40c0,5.523,4.478,10,10,10h40c5.522,0,10-4.477,10-10v-40
			C472,416.477,467.522,412,462,412z M452,452h-20v-20h20V452z"/>
	</g>
</g>
<g>
	<g>
		<path d="M382,412h-40c-5.522,0-10,4.477-10,10v40c0,5.523,4.478,10,10,10h40c5.522,0,10-4.477,10-10v-40
			C392,416.477,387.522,412,382,412z M372,452h-20v-20h20V452z"/>
	</g>
</g>
<g>
	<g>
		<path d="M302,412h-40c-5.522,0-10,4.477-10,10v40c0,5.523,4.478,10,10,10h40c5.522,0,10-4.477,10-10v-40
			C312,416.477,307.522,412,302,412z M292,452h-20v-20h20V452z"/>
	</g>
</g>
<g>
	<g>
		<path d="M422,373c-5.51,0-10,4.49-10,10s4.49,10,10,10s10-4.49,10-10S427.51,373,422,373z"/>
	</g>
</g>
<g>
	<g>
		<path d="M422,320c-5.51,0-10,4.49-10,10v13c0,5.51,4.49,10,10,10s10-4.49,10-10v-13C432,324.49,427.51,320,422,320z"/>
	</g>
</g>
<g>
	<g>
		<path d="M382,320c-5.51,0-10,4.49-10,10v13c0,5.51,4.49,10,10,10s10-4.49,10-10v-13C392,324.49,387.51,320,382,320z"/>
	</g>
</g>
<g>
	<g>
		<path d="M382,373c-5.51,0-10,4.49-10,10s4.49,10,10,10s10-4.49,10-10S387.51,373,382,373z"/>
	</g>
</g>
<g>
	<g>
		<path d="M342,320c-5.51,0-10,4.49-10,10v13c0,5.51,4.49,10,10,10s10-4.49,10-10v-13C352,324.49,347.51,320,342,320z"/>
	</g>
</g>
<g>
	<g>
		<path d="M342,373c-5.51,0-10,4.49-10,10s4.49,10,10,10s10-4.49,10-10S347.51,373,342,373z"/>
	</g>
</g>
<g>
	<g>
		<path d="M462,40H50c-5.522,0-10,4.477-10,10v100c0,5.523,4.478,10,10,10h412c5.522,0,10-4.477,10-10V50
			C472,44.477,467.522,40,462,40z M452,140H60V60h392V140z"/>
	</g>
</g>
<g>
	<g>
		<path d="M96,80c-5.522,0-10,4.477-10,10v20c0,5.523,4.478,10,10,10c5.522,0,10-4.477,10-10V90C106,84.477,101.522,80,96,80z"/>
	</g>
</g>
<g>
	<g>
		<path d="M136,80c-5.522,0-10,4.477-10,10v20c0,5.523,4.478,10,10,10c5.522,0,10-4.477,10-10V90C146,84.477,141.522,80,136,80z"/>
	</g>
</g>
<g>
	<g>
		<path d="M176,80c-5.522,0-10,4.477-10,10v20c0,5.523,4.478,10,10,10c5.522,0,10-4.477,10-10V90C186,84.477,181.522,80,176,80z"/>
	</g>
</g>
<g>
	<g>
		<path d="M216,80c-5.522,0-10,4.477-10,10v20c0,5.523,4.478,10,10,10c5.522,0,10-4.477,10-10V90C226,84.477,221.522,80,216,80z"/>
	</g>
</g>
<g>
	<g>
		<path d="M256,80c-5.522,0-10,4.477-10,10v20c0,5.523,4.478,10,10,10c5.522,0,10-4.477,10-10V90C266,84.477,261.522,80,256,80z"/>
	</g>
</g>
<g>
	<g>
		<path d="M296,80c-5.522,0-10,4.477-10,10v20c0,5.523,4.478,10,10,10c5.522,0,10-4.477,10-10V90C306,84.477,301.522,80,296,80z"/>
	</g>
</g>
<g>
	<g>
		<path d="M336,80c-5.522,0-10,4.477-10,10v20c0,5.523,4.478,10,10,10c5.522,0,10-4.477,10-10V90C346,84.477,341.522,80,336,80z"/>
	</g>
</g>
<g>
	<g>
		<path d="M376,80c-5.522,0-10,4.477-10,10v20c0,5.523,4.478,10,10,10c5.522,0,10-4.477,10-10V90C386,84.477,381.522,80,376,80z"/>
	</g>
</g>
<g>
	<g>
		<path d="M416,80c-5.522,0-10,4.477-10,10v20c0,5.523,4.478,10,10,10c5.522,0,10-4.477,10-10V90C426,84.477,421.522,80,416,80z"/>
	</g>
</g>
<g>
	<g>
		<path d="M219,377c-5.522,0-10,4.477-10,10v15c0,5.514-4.486,10-10,10h-50c-5.514,0-10-4.486-10-10v-15c0-5.523-4.478-10-10-10
			c-5.522,0-10,4.477-10,10v15c0,14.838,10.831,27.187,25,29.575V462c0,5.523,4.478,10,10,10h40c5.522,0,10-4.477,10-10v-30.425
			c14.169-2.388,25-14.738,25-29.575v-15C229,381.477,224.522,377,219,377z M184,452h-20v-20h20V452z"/>
	</g>
</g>
<g>
	<g>
		<path d="M377,180c-52.383,0-95,42.617-95,95v15c0,5.523,4.478,10,10,10h170c5.522,0,10-4.477,10-10v-15
			C472,222.617,429.383,180,377,180z M452,280h-20v-5c0-5.523-4.478-10-10-10c-5.522,0-10,4.477-10,10v5h-25v-10
			c0-5.523-4.478-10-10-10c-5.522,0-10,4.477-10,10v10h-25v-5c0-5.523-4.478-10-10-10c-5.522,0-10,4.477-10,10v5h-20v-5
			c0-41.355,33.645-75,75-75c41.355,0,75,33.645,75,75V280z"/>
	</g>
</g>
<g>
	<g>
		<path d="M415.89,236.11c-3.91-3.91-10.241-3.9-14.14,0c-3.91,3.91-3.91,10.239,0,14.14c3.739,3.73,10.307,3.833,14.14,0
			C419.8,246.35,419.8,240.02,415.89,236.11z"/>
	</g>
</g>
<g>
	<g>
		<path d="M377,220c-5.521,0-10,4.48-10,10s4.479,10,10,10c5.52,0,10-4.48,10-10S382.52,220,377,220z"/>
	</g>
</g>
<g>
	<g>
		<path d="M352.27,236.1c-3.911-3.91-10.24-3.91-14.15-0.01c-3.9,3.91-3.9,10.24,0,14.14c3.726,3.726,10.31,3.84,14.14,0.01
			C356.17,246.34,356.17,240,352.27,236.1z"/>
	</g>
</g>
<g>
	<g>
		<path d="M129,320c-16.542,0-30,13.458-30,30c0,5.523,4.478,10,10,10c5.522,0,10-4.477,10-10c0-5.514,4.486-10,10-10
			c5.514,0,10,4.486,10,10c0,5.523,4.478,10,10,10c5.522,0,10-4.477,10-10C159,333.458,145.542,320,129,320z"/>
	</g>
</g>
<g>
	<g>
		<path d="M219,320c-16.542,0-30,13.458-30,30c0,5.523,4.478,10,10,10c5.522,0,10-4.477,10-10c0-5.514,4.486-10,10-10
			c5.514,0,10,4.486,10,10c0,5.523,4.478,10,10,10c5.522,0,10-4.477,10-10C249,333.458,235.542,320,219,320z"/>
	</g>
</g>
<g>
	<g>
		<path d="M135,180c-52.383,0-95,42.617-95,95v15c0,5.523,4.478,10,10,10h170c5.522,0,10-4.477,10-10v-15
			C230,222.617,187.383,180,135,180z M210,280h-20v-5c0-5.523-4.478-10-10-10c-5.522,0-10,4.477-10,10v5h-25v-10
			c0-5.523-4.478-10-10-10c-5.522,0-10,4.477-10,10v10h-25v-5c0-5.523-4.478-10-10-10c-5.522,0-10,4.477-10,10v5H60v-5
			c0-41.355,33.645-75,75-75s75,33.645,75,75V280z"/>
	</g>
</g>
<g>
	<g>
		<path d="M135,220c-5.521,0-10,4.48-10,10s4.479,10,10,10c5.52,0,10-4.48,10-10S140.52,220,135,220z"/>
	</g>
</g>
<g>
	<g>
		<circle cx="103" cy="243" r="10"/>
	</g>
</g>
<g>
	<g>
		<circle cx="167" cy="243" r="10"/>
	</g>
</g>
<g>
</g>
<g>
</g>
<g>
</g>
<g>
</g>
<g>
</g>
<g>
</g>
<g>
</g>
<g>
</g>
<g>
</g>
<g>
</g>
<g>
</g>
<g>
</g>
<g>
</g>
<g>
</g>
<g>
</g>
</svg>
