<svg height="478pt" viewBox="0 -9 478 478" width="478pt" xmlns="http://www.w3.org/2000/svg"><path d="m471 283.6875h-291.199219v-27.597656l25.480469-16.949219c2.566406-1.707031 3.714844-4.898437 2.820312-7.851563-.890624-2.953124-3.613281-4.976562-6.699218-4.976562h-80.929688c-3.082031.007812-5.792968 2.027344-6.683594 4.976562-.890624 2.949219.25 6.132813 2.8125 7.84375l25.476563 16.949219v27.597657h-135.078125c-3.867188 0-7 3.136718-7 7v161.5625c-.00390625 3.867187 3.132812 7.003906 7 7.003906h464c3.867188 0 7-3.136719 7-7v-161.558594c0-3.863281-3.132812-7-7-7zm-7 134.191406c-22.4375 3.25-106.511719 13.679688-185.460938.523438-96.96875-16.160156-175.695312-21.414063-264.515624 1.746094v-51.828126c30 19.667969 66.460937 23.890626 95.902343 25.199219l.617188-14c-30.21875-1.347656-68.210938-5.894531-96.519531-28.523437v-24.238282c26.203124.667969 49.804687 12.960938 74.691406 25.964844 27.414062 14.324219 55.753906 29.136719 90.828125 30.753906 2.042969.09375 4.082031.140626 6.121093.140626 38.058594 0 75.859376-15.917969 109.410157-30.046876 26.402343-11.128906 51.375-21.636718 72-22.566406 24.519531-1.125 45.660156 6.855469 64.320312 13.878906 10.480469 4.441407 21.425781 7.710938 32.625 9.742188v33.046875c-69.878906 15.539063-234.976562-.488281-236.679687-.65625l-1.375 13.929687c4.679687.464844 77.816406 7.566407 147.527344 7.566407 33.683593 0 66.550781-1.667969 90.523437-6.53125zm-314.9375-120.191406h4.9375c13.527344 10.761719 29.011719 18.792969 45.601562 23.648438l3.632813-13.523438c-8.4375-2.515625-16.589844-5.90625-24.324219-10.125h113.5625c-4.402344 2.121094-8.828125 4.359375-13.296875 6.621094-20 10.136718-40.667969 20.625-68.308593 25.445312-34.828126 6.0625-51.542969-4.691406-74.6875-19.601562-6.238282-4-12.898438-8.277344-20.332032-12.476563zm7.007812-38.355469h4.867188v-14h-9.75l-7.554688-5.027343h34.605469l-9.316406 6.199218c-1.953125 1.300782-3.121094 3.488282-3.121094 5.828125v31.355469h-9.734375zm-73.019531 38.355469c16.039063 6.363281 31.316407 14.5 45.550781 24.25 19.347657 12.457031 36.554688 23.535156 63.824219 23.535156 6.988281-.039062 13.964844-.683594 20.847657-1.925781 29.699218-5.183594 52.292968-16.636719 72.234374-26.75 20.214844-10.246094 37.675782-19.105469 57.667969-19.105469h120.800781v42.800782c-9.476562-2.0625-18.746093-4.976563-27.695312-8.707032-19.921875-7.496094-42.507812-16-69.878906-14.757812-23.105469 1.042968-49.199219 12-76.796875 23.640625-35.644531 15.011719-72.53125 30.519531-109.457031 28.828125-31.980469-1.476563-58.925782-15.5625-84.988282-29.199219-26.53125-13.863281-51.703125-26.9375-81.175781-27.558594v-15.050781zm-69.039062 147.5625v-10.636719c88.164062-23.734375 163.285156-18.894531 262.214843-2.398437 29.046876 4.597656 58.417969 6.820312 87.820313 6.644531 33.429687-.042969 66.820313-2.332031 99.941406-6.847656v13.234375zm294.1875-70.203125-3.128907-13.648437c35.710938-8.191407 87.4375-16.5 124.28125 5.875l-7.261718 11.96875c-32.503906-19.734376-80.578125-11.847657-113.890625-4.195313zm-107.097657-216.886719c1.3125 1.316406 3.089844 2.054688 4.949219 2.054688 1.855469 0 3.636719-.738282 4.949219-2.054688l27.921875-27.917968c1.3125-1.3125 2.050781-3.09375 2.050781-4.949219v-6.957031h6.953125c1.855469 0 3.632813-.738282 4.945313-2.050782l6.824218-6.824218 112.46875 112.464843c4.460938 4.449219 7.980469 9.757813 10.34375 15.597657l5.019532 12.382812c3.917968 9.609375 12.203125 16.761719 22.28125 19.234375 2.484375.613281 5.039062.921875 7.597656.925781 7.183594.015625 14.136719-2.539062 19.601562-7.203125.3125-.265625.585938-.5 14.695313-14.570312 3.105469-3.097657 4.851563-7.304688 4.851563-11.691407 0-4.386718-1.746094-8.59375-4.851563-11.691406l-153.722656-153.730468 1.058593-1.058594c5.832032-5.570313 15.011719-5.570313 20.84375 0l5.832032 5.832031c1.3125 1.3125 3.09375 2.050781 4.949218 2.050781 1.859376 0 3.640626-.738281 4.953126-2.050781l13.117187-13.121094c1.316406-1.3125 2.054687-3.09375 2.054687-4.949219 0-1.855468-.738281-3.636718-2.054687-4.949218l-39.101563-39.101563c-18.480468-18.441406-48.40625-18.441406-66.886718 0l-1.058594 1.0625-8.398438-8.402343c-1.3125-1.3125-3.09375-2.050782-4.949218-2.050782-1.859375 0-3.640625.738282-4.953125 2.050782l-28.398438 28.402343c-1.3125 1.3125-2.050781 3.089844-2.050781 4.949219 0 1.855469.738281 3.636719 2.050781 4.949219l8.398438 8.398437-6.785157 6.820313c-1.316406 1.3125-2.050781 3.09375-2.054687 4.949219v6.957031h-6.960937c-1.859376 0-3.636719.738281-4.949219 2.050781l-27.921875 27.917969c-1.3125 1.3125-2.050782 3.089843-2.050782 4.949219 0 1.855468.738282 3.636718 2.050782 4.949218zm241.433594 78.425782c0 .667968-.265625 1.308593-.738281 1.777343-5.769531 5.753907-13.304687 13.253907-13.90625 13.832031-4.078125 3.449219-9.582031 4.699219-14.75 3.351563-5.714844-1.402344-10.414063-5.453125-12.644531-10.898437l-5.019532-12.378907c-3-7.414062-7.4375-14.164062-13.050781-19.855469l18.5-18.503906 40.875 40.902344c.472657.46875.738281 1.105469.738281 1.773438zm-51.507812-52.574219-18.484375 18.484375-102.945313-102.933594 2.828125-2.828125 15.652344-15.65625zm-181.160156-144.175781 18.484374-18.484376 3.441407 3.4375-18.503907 18.503907zm-19.386719 46.066406h8.15625l17.5625 17.566406 9.902343-9.898438-17.566406-17.558593v-8.160157l44.097656-44.097656c13.011719-12.980468 34.070313-12.980468 47.082032 0l34.15625 34.152344-3.222656 3.222656-.878907-.882812c-11.226562-11.226563-29.425781-11.226563-40.648437 0l-6 6-16.050782 16.046875-22.058593 22.054687h-11.039063c-3.867187 0-7 3.136719-7 7v11.058594l-20.921875 20.917969-36.488281-36.511719zm0 0"/></svg>