<?xml version="1.0" encoding="iso-8859-1"?>
<!-- Generator: Adobe Illustrator 16.0.0, SVG Export Plug-In . SVG Version: 6.00 Build 0)  -->
<!DOCTYPE svg PUBLIC "-//W3C//DTD SVG 1.1//EN" "http://www.w3.org/Graphics/SVG/1.1/DTD/svg11.dtd">
<svg version="1.1" id="Capa_1" xmlns="http://www.w3.org/2000/svg" xmlns:xlink="http://www.w3.org/1999/xlink" x="0px" y="0px"
	 width="505.851px" height="505.851px" viewBox="0 0 505.851 505.851" style="enable-background:new 0 0 505.851 505.851;"
	 xml:space="preserve">
<g>
	<path d="M477.574,159.922c-60.76-25.158-121.41-50.585-182.105-75.904c-28.199-11.771-56.588-12.021-84.76-0.377
		c-60.778,25.141-121.403,50.604-182.09,75.94c-13.691,5.725-26.988,11.969-28.478,29.411c-1.57,18.446,10.219,27.706,24.351,35.87
		c64.555,37.216,141.76,82.239,206.225,119.6c6.208,3.983,1.175,14.282-7.276,8.938c-50.289-29.25-105.701-62.949-155.658-92.021
		l0.045,11.308c50.935,30.108,103.027,61.367,153.953,91.479c13.198,6.712,4.845,16.223-2.557,11.377
		c-48.055-27.922-104.355-62.733-152.419-90.654L66.796,296.3c52.254,31.115,105.665,62.808,162.692,96.773
		c7.554,4.575,1.381,13.188-10.453,5.65c-2.719-1.472-18.68-11.377-22.368-13.564L66.256,309.558l-0.045,19.186l139.876,88.556
		c31.214,18.159,62.474,17.944,93.669-0.287c19.773-11.558,39.621-22.986,61.219-35.476c1.883,14.266,2.24,24.94,4.941,34.989
		c2.137,7.969,9.432,12.562,17.816,12.398c8.291-0.162,14.717-4.773,17.93-12.633c3.316-8.13,1.818-18.285-5.572-20.367
		c-27.043-7.557-19.551-28.479-19.854-46.312c-0.432-25.179-0.871-50.405,0.09-75.547c0.689-17.892-6.145-28.729-22.482-36.159
		c-25.068-11.412-49.32-24.584-73.912-37.02c1.641-4.198,3.291-8.416,4.936-12.614c26.035,12.92,51.867,26.271,78.199,38.544
		c19.955,9.331,28.848,23.974,28.244,45.974c-0.771,28.566-0.188,57.135-0.188,87.892c37.629-12.812,47.473-38.398,46.514-70.699
		l0.098-39.39l34.91-21.282c0,0,6.648-3.947,10.066-5.76c13.734-7.178,24.277-17.227,23.041-33.807
		C504.5,173.004,491.645,165.737,477.574,159.922z M252.276,169.039c8.972,1.166,21.955-0.897,22.224,11.179
		c0.227,10.354-12.531,9.816-20.385,10.104c-8.979,0.322-22.78,0.933-23.523-9.798C229.764,168.643,243.375,170.277,252.276,169.039
		z M249.925,345.036l0.116,57.602C235.022,384.695,235.812,357.974,249.925,345.036z M300.752,287.939
		c26.539-14.268,45.084-25.445,45.084-25.445l10.336,7.646c0,0-54.486,34.829-84.193,43.819
		c-15.674,5.922-40.876,2.584-55.896-6.818C155.17,271.753,94.357,236.224,33.714,200.372c-5.644-3.338-16.356-7.25-11.17-15.54
		c3.795-6.102,10.255,2.153,19.829,7.069c55.161,31.834,110.232,63.577,164.765,96.685
		C240.693,308.968,266.289,306.097,300.752,287.939z M477.486,194.411c0,0-55.445,33-65.514,38.329
		c-4.738,2.225-12.463-5.563-2.389-10.749c24.906-14.229,33.342-18.716,58.193-33.053
		C478.158,182.945,483.184,190.428,477.486,194.411z"/>
	<path d="M258.154,205.657c-4.164,17.011-21.004,16.473-21.004,16.473c-0.413,1.221-0.674,5.024-0.925,6.747
		c-3.293,22.358-4.441,45.111-3.293,70.627c0,0,21.758,4.737,40.42-10.694L258.154,205.657z"/>
	<path d="M252.723,213.481c1.632-6.101-15.771,60.939-8.498,76.624l12.644,2.654c-5.922-34.938,2.467-56.598,6.539-77.735
		C259.531,215.563,254.645,214.574,252.723,213.481z"/>
	<path d="M256.93,211.583c2.439-4.846-21.174,48.826-14.831,80.588c0,0,7.043,1.9,9.933,2.402
		c0.358-32.013,3.255-44.823,12.695-77.339C265.668,217.271,260.375,215.872,256.93,211.583z"/>
</g>
<g>
</g>
<g>
</g>
<g>
</g>
<g>
</g>
<g>
</g>
<g>
</g>
<g>
</g>
<g>
</g>
<g>
</g>
<g>
</g>
<g>
</g>
<g>
</g>
<g>
</g>
<g>
</g>
<g>
</g>
</svg>
